<svg xmlns="http://www.w3.org/2000/svg" viewBox="0 0 576 512">
  <path fill="#FF0000" d="M549.65 124.08c-6.28-23.62-24.8-42.18-48.43-48.46C458.73 64 288 64 288 64s-170.73 0-213.22 11.62c-23.63 6.28-42.15 24.84-48.43 48.46C15.73 166.56 15.73 256 15.73 256s0 89.44 10.62 131.92c6.28 23.62 24.8 42.18 48.43 48.46C117.27 448 288 448 288 448s170.73 0 213.22-11.62c23.63-6.28 42.15-24.84 48.43-48.46C560.27 345.44 560.27 256 560.27 256s0-89.44-10.62-131.92zM232 334.73V177.27L377.72 256 232 334.73z"></path>
</svg>
